# xmcd
#
# Track frame offsets: 
#        150
#        13718
#        25220
#        34231
#        47947
#        60670
#        74948
#        86717
#        97664
#        111578
#        121881
#        134049
#        146871
#        159326
#        170797
#        182793
#        195896
#        207190
#
# Disc length: 2902 seconds
#
# Revision: 1
# Processed by: cddbd v1.5.2PL0 Copyright (c) Steve Scherf et al.
# Submitted via: ExactAudioCopy v0.99pb4
#
DISCID=0f0b5412
DTITLE=Ray Charles - Legend [CD1]
DYEAR=2005
DGENRE=Blues
TTITLE0=Baby, Let Me Hold Your Hand
TTITLE1=Confession Blues
TTITLE2=All to Myself Alone
TTITLE3=This Love of Mine
TTITLE4=Lonely Boy
TTITLE5=Kissa Me Baby
TTITLE6=If I Give You My Love
TTITLE7=A Sentimental Blues
TTITLE8=Late in the Evening Blues
TTITLE9=Ain't that Fine
TTITLE10=Honey Honey
TTITLE11=Don't Put All Your Dreams in One Basket
TTITLE12=Rockin' Chair Blues
TTITLE13=What Have I Done
TTITLE14=I Love You I Love You
TTITLE15=Baby won't You Please Come Home
TTITLE16=She's on the Ball
TTITLE17=Th' Ego Song
EXTD=
EXTT0=
EXTT1=
EXTT2=
EXTT3=
EXTT4=
EXTT5=
EXTT6=
EXTT7=
EXTT8=
EXTT9=
EXTT10=
EXTT11=
EXTT12=
EXTT13=
EXTT14=
EXTT15=
EXTT16=
EXTT17=
PLAYORDER=
